<?xml version="1.0" encoding="utf-8"?>
<svg viewBox="-0.0002 -0.0005 47.9997 48.0005" width="47.9997px" height="48.0005px" xmlns="http://www.w3.org/2000/svg"><path fill="#ffffffde" d="M 47.365 0.111 C 46.942 -0.093 46.438 -0.012 46.102 0.312 C 43.525 2.784 39.085 6.435 32.566 9.807 C 32.281 9.954 32.074 10.215 31.993 10.527 C 31.462 12.624 30.418 14.916 28.891 17.334 L 28.27 18.321 L 29.428 13.278 C 29.524 12.867 29.38 12.438 29.056 12.168 C 28.732 11.898 28.285 11.832 27.895 11.997 L 27.763 12.054 C 14.611 17.586 10.723 26.154 9.577 30.768 C 9.178 32.37 8.98 33.957 8.989 35.484 C 8.989 36.072 9.022 36.636 9.088 37.161 L 0.322 46.092 C -0.104 46.524 -0.107 47.214 0.31 47.652 C 0.532 47.883 0.826 48 1.123 48 C 1.39 48 1.657 47.904 1.87 47.715 L 25.957 26.097 C 26.074 26.103 12.241 40.584 12.367 40.584 C 14.245 40.584 16.837 39.72 19.867 38.082 C 23.953 35.877 28.516 32.493 33.067 28.296 C 33.442 27.951 33.535 27.399 33.298 26.949 C 33.061 26.499 32.551 26.265 32.056 26.379 L 29.236 27.027 L 30.22 26.406 C 32.971 24.672 35.542 23.568 37.864 23.121 C 38.116 23.073 38.341 22.938 38.506 22.746 C 43.966 16.314 46.279 9.957 47.254 5.76 C 47.611 4.233 47.86 2.706 47.995 1.224 C 48.037 0.756 47.788 0.312 47.365 0.111 Z" id="object-0"/></svg>